<svg width="1200" height="960" viewBox="0 0 1200 960" fill="none" xmlns="http://www.w3.org/2000/svg">
  <rect width="1200" height="960" rx="48" fill="#FFF8F1"/>
  <rect x="46" y="46" width="1108" height="868" rx="36" fill="#FFFDF9" stroke="#E8D9CB"/>
  <rect x="86" y="94" width="724" height="772" rx="28" fill="#FFFFFF" stroke="#E9DED2"/>
  <rect x="842" y="94" width="272" height="772" rx="28" fill="#FFF6EE" stroke="#E9DED2"/>
  <rect x="126" y="132" width="282" height="20" rx="10" fill="#F1D0BB"/>
  <rect x="126" y="170" width="518" height="16" rx="8" fill="#E9E1D8"/>
  <rect x="126" y="214" width="300" height="208" rx="24" fill="#2E261F"/>
  <circle cx="226" cy="304" r="58" fill="#D19A6E"/>
  <path d="M178 360C190 318.4 218.333 297.6 263 297.6C307.667 297.6 336 318.4 348 360V392H178V360Z" fill="#F3C29A"/>
  <rect x="466" y="214" width="284" height="208" rx="24" fill="#FFF5EC" stroke="#E8D5C7"/>
  <path d="M506 377C580.667 293.667 643.333 279 694 333" stroke="#CB5A2C" stroke-width="12" stroke-linecap="round"/>
  <circle cx="506" cy="377" r="14" fill="#CB5A2C"/>
  <circle cx="575" cy="328" r="14" fill="#CB5A2C"/>
  <circle cx="638" cy="314" r="14" fill="#CB5A2C"/>
  <circle cx="694" cy="333" r="14" fill="#CB5A2C"/>
  <rect x="126" y="456" width="624" height="40" rx="20" fill="#FAEFE5"/>
  <rect x="126" y="528" width="624" height="40" rx="20" fill="#FAEFE5"/>
  <rect x="126" y="600" width="624" height="40" rx="20" fill="#FAEFE5"/>
  <rect x="126" y="704" width="286" height="112" rx="24" fill="#FFF1E7" stroke="#ECD7C9"/>
  <rect x="432" y="704" width="318" height="112" rx="24" fill="#FFF1E7" stroke="#ECD7C9"/>
  <rect x="872" y="134" width="214" height="132" rx="24" fill="#FFFFFF" stroke="#E5D6C8"/>
  <rect x="898" y="164" width="102" height="12" rx="6" fill="#E6D8CB"/>
  <rect x="898" y="190" width="150" height="12" rx="6" fill="#F1D0BB"/>
  <rect x="898" y="222" width="128" height="18" rx="9" fill="#CB5A2C"/>
  <rect x="872" y="294" width="214" height="184" rx="24" fill="#FFFFFF" stroke="#E5D6C8"/>
  <rect x="898" y="324" width="148" height="14" rx="7" fill="#E6D8CB"/>
  <rect x="898" y="356" width="162" height="14" rx="7" fill="#F1D0BB"/>
  <rect x="898" y="404" width="48" height="48" rx="16" fill="#FFE5D8"/>
  <rect x="958" y="404" width="48" height="48" rx="16" fill="#FFE5D8"/>
  <rect x="1018" y="404" width="48" height="48" rx="16" fill="#FFE5D8"/>
  <rect x="872" y="506" width="214" height="320" rx="24" fill="#2A231E"/>
  <rect x="898" y="536" width="124" height="16" rx="8" fill="#F4C19B"/>
  <rect x="898" y="574" width="140" height="12" rx="6" fill="#867469"/>
  <rect x="898" y="622" width="160" height="36" rx="18" fill="#CB5A2C"/>
  <rect x="898" y="678" width="160" height="36" rx="18" fill="#FFF8F1"/>
  <rect x="898" y="736" width="160" height="12" rx="6" fill="#867469"/>
  <rect x="898" y="764" width="126" height="12" rx="6" fill="#867469"/>
</svg>
