<svg width="1200" height="630" viewBox="0 0 1200 630" fill="none" xmlns="http://www.w3.org/2000/svg">
  <rect width="1200" height="630" fill="#FFF8F1"/>
  <circle cx="155" cy="110" r="190" fill="#FFE5D8"/>
  <circle cx="1110" cy="560" r="230" fill="#F8D0B7"/>
  <rect x="72" y="70" width="1056" height="490" rx="34" fill="#FFFDF9" stroke="#E6D6C8"/>
  <rect x="112" y="128" width="340" height="18" rx="9" fill="#CB5A2C"/>
  <text x="112" y="242" fill="#1F1A17" font-family="Segoe UI, sans-serif" font-size="70" font-weight="800">Rick Broider</text>
  <text x="112" y="328" fill="#1F1A17" font-family="Segoe UI, sans-serif" font-size="58" font-weight="700">From clarity to prosperity</text>
  <text x="112" y="402" fill="#5E544E" font-family="Segoe UI, sans-serif" font-size="32">Live guidance for business rebuilds, websites, apps, and</text>
  <text x="112" y="446" fill="#5E544E" font-family="Segoe UI, sans-serif" font-size="32">the next move when everything feels tangled.</text>
  <rect x="788" y="128" width="244" height="306" rx="26" fill="#2C241D"/>
  <circle cx="910" cy="228" r="56" fill="#D49B71"/>
  <path d="M840 322C851.667 281.333 875 261 910 261C945 261 968.333 281.333 980 322V352H840V322Z" fill="#F1C39A"/>
  <rect x="780" y="466" width="272" height="50" rx="25" fill="#CB5A2C"/>
  <text x="833" y="498" fill="#FFFDF9" font-family="Segoe UI, sans-serif" font-size="24" font-weight="700">Book Your Build Call</text>
</svg>
