<svg width="900" height="680" viewBox="0 0 900 680" fill="none" xmlns="http://www.w3.org/2000/svg">
  <rect width="900" height="680" rx="32" fill="#FFF8F1"/>
  <rect x="42" y="42" width="816" height="596" rx="28" fill="#FFFDF9" stroke="#E8D8CC"/>
  <rect x="86" y="94" width="260" height="18" rx="9" fill="#CB5A2C"/>
  <rect x="86" y="126" width="420" height="12" rx="6" fill="#E6D8CC"/>
  <rect x="86" y="180" width="338" height="104" rx="24" fill="#FFF1E7"/>
  <rect x="108" y="208" width="188" height="12" rx="6" fill="#8A766A"/>
  <rect x="108" y="236" width="240" height="12" rx="6" fill="#CB5A2C"/>
  <rect x="448" y="180" width="366" height="104" rx="24" fill="#FFF1E7"/>
  <rect x="470" y="208" width="210" height="12" rx="6" fill="#8A766A"/>
  <rect x="470" y="236" width="278" height="12" rx="6" fill="#CB5A2C"/>
  <rect x="86" y="316" width="728" height="266" rx="28" fill="#2C241D"/>
  <circle cx="226" cy="448" r="88" fill="#CB5A2C"/>
  <text x="172" y="466" fill="#FFF8F1" font-family="Segoe UI, sans-serif" font-size="48" font-weight="800">87</text>
  <rect x="354" y="388" width="336" height="36" rx="18" fill="#FFE5D8"/>
  <rect x="354" y="442" width="288" height="14" rx="7" fill="#867469"/>
  <rect x="354" y="474" width="260" height="14" rx="7" fill="#867469"/>
  <rect x="354" y="522" width="196" height="38" rx="19" fill="#CB5A2C"/>
</svg>
